<?xml version="1.0" encoding="UTF-8" standalone="no"?>
<svg
   xmlns:svg="http://www.w3.org/2000/svg"
   xmlns="http://www.w3.org/2000/svg"
   xmlns:xlink="http://www.w3.org/1999/xlink"
   id="svg2"
   version="1.1"
   width="284"
   height="64">
  <defs
     id="defs6">
    <linearGradient
       x1="0"
       y1="0"
       x2="1"
       y2="0"
       gradientUnits="userSpaceOnUse"
       gradientTransform="matrix(61.305366,0,0,-61.305366,13.87633,76.436119)"
       spreadMethod="pad"
       id="linearGradient24-3">
      <stop
         style="stop-color:#ec1c28"
         offset="0"
         id="stop26-6" />
      <stop
         style="stop-color:#ec1c28"
         offset="0.331971"
         id="stop28-7" />
      <stop
         style="stop-color:#fbc81f"
         offset="1"
         id="stop30-5" />
    </linearGradient>
    <linearGradient
       xlink:href="#linearGradient24-3"
       id="linearGradient943"
       gradientUnits="userSpaceOnUse"
       gradientTransform="matrix(61.308309,0,0,61.305366,13.346141,-76.412393)"
       x1="0"
       y1="0"
       x2="1"
       y2="0"
       spreadMethod="pad" />
  </defs>
  <g
     style="fill:#52566d;font-family:'Alegreya SC'"
     id="g42">
    <path
       id="path44"
       d="m 81.5123,19.8127 -0.378,2.235 -0.407,0.116 c -1.131,-0.87 -2.438,-1.335 -3.657,-1.335 -2.265,0 -3.513,1.567 -3.513,3.019 0,3.716 8.506,3.339 8.506,8.709 0,2.904 -2.497,5.342 -6.242,5.342 -1.596,0 -3.454,-0.436 -4.992,-1.307 l 0.29,-2.38 0.319,-0.145 c 1.423,1.394 3.222,1.911 4.615,1.945 2.725,0.067 4.521,-1.406 3.716,-3.135 -1.653,-3.553 -8.476,-3.368 -8.476,-8.768 0,-2.874 2.467,-5.167 6.067,-5.167 1.104,0 2.584,0.232 4.152,0.871" />
    <path
       id="path48"
       d="m 86.4159,30.6993 c 0,3.745 1.307,5.574 3.687,5.574 2.438,0 3.745,-1.626 3.745,-4.877 0,-3.687 -1.307,-5.603 -3.688,-5.603 -2.437,0 -3.744,1.712 -3.744,4.906 m 9.58,0.174 c 0,4.471 -2.178,7.054 -6.039,7.054 -3.628,0 -5.718,-2.438 -5.718,-6.706 0,-4.47 2.205,-7.054 6.067,-7.054 3.599,0 5.69,2.439 5.69,6.706" />
    <path
       id="path52"
       d="m 102.1763,31.8605 0.145,5.835 h -2.293 l 0.174,-5.661 -0.058,-6.067 h -2.003 l -0.116,-0.175 0.145,-1.364 h 1.974 l -0.029,-1.916 c -0.029,-3.135 1.655,-4.848 4.586,-4.848 0.726,0 1.511,0.087 2.294,0.262 l -0.174,1.799 -0.174,0.145 c -0.813,-0.406 -1.452,-0.522 -2.149,-0.522 -1.393,0 -2.177,0.958 -2.206,2.845 l -0.028,2.235 h 7.199 l 0.087,0.174 -0.145,1.365 h -7.17 z" />
    <path
       id="path56"
       d="m 114.8893,35.3441 0.262,0.174 -0.233,1.509 c -1.074,0.494 -1.916,0.756 -2.903,0.842 -2.206,-0.435 -3.106,-1.538 -3.106,-3.832 l 0.087,-2.061 -0.029,-6.009 h -1.829 l -0.116,-0.174 0.145,-1.364 h 1.771 v -2.149 l 2.003,-0.87 0.232,0.202 -0.058,2.817 h 3.948 l 0.117,0.173 -0.146,1.365 h -3.919 l -0.145,7.867 c -0.029,1.568 0.552,2.091 1.829,2.091 0.61,0 1.248,-0.146 2.09,-0.581" />
    <path
       id="path60"
       d="m 121.3326,35.1987 h 0.145 l 2.816,-9.057 0.464,-1.742 h 2.265 l 0.319,1.625 2.439,9.174 h 0.145 l 2.844,-9.057 0.407,-1.742 h 2.032 l -4.383,13.296 h -2.207 l -2.757,-10.306 h -0.203 l -3.223,10.306 h -2.264 l -3.716,-13.238 2.118,-0.145 0.32,1.712 z" />
    <path
       id="path64"
       d="m 139.6459,32.5572 c -0.726,0.203 -1.103,0.551 -1.103,1.393 0,1.278 0.784,2.032 1.974,2.032 1.132,0 2.207,-0.754 3.252,-2.061 l 0.087,-2.38 z m 6.387,-4.906 c 0,1.015 -0.349,6.154 -0.349,7.17 0,0.842 0.233,1.132 0.9,1.132 0.232,0 0.523,-0.028 0.987,-0.174 l 0.233,0.203 -0.233,1.307 c -0.493,0.29 -1.074,0.522 -1.654,0.58 -1.191,-0.116 -1.945,-0.871 -2.003,-2.148 h -0.204 c -0.986,1.016 -2.003,1.771 -3.106,2.178 -2.613,0 -4.122,-1.394 -4.122,-3.629 0,-1.772 0.987,-2.7 2.7,-3.106 l 4.703,-1.104 0.029,-1.887 c 0,-1.538 -0.842,-2.351 -2.294,-2.351 -1.307,0 -2.583,0.609 -4.093,1.916 l -0.233,-0.117 -0.29,-1.654 c 1.597,-1.19 3.309,-1.8 4.964,-1.8 2.497,0 4.065,1.307 4.065,3.484" />
    <path
       id="path68"
       d="m 158.1063,24.4287 v 2.235 l -0.262,0.087 c -0.405,-0.116 -0.811,-0.145 -1.044,-0.145 -1.249,0 -2.322,0.929 -3.368,3.222 l -0.028,2.033 0.145,5.835 h -2.294 l 0.175,-5.632 -0.146,-7.519 2.206,-0.203 -0.029,2.729 h 0.175 c 1.189,-2.091 2.583,-2.701 3.716,-2.701 0.26,0 0.551,0.03 0.754,0.059" />
    <path
       id="path72"
       d="m 161.9374,29.3927 6.386,-0.174 0.058,-0.349 c 0,-2.09 -1.132,-3.047 -2.728,-3.047 -1.975,0 -3.31,1.277 -3.716,3.57 m -0.145,1.626 c 0,3.135 1.306,5.051 3.976,5.051 1.249,0 2.672,-0.465 3.891,-1.306 l 0.261,0.145 -0.232,1.945 c -1.248,0.638 -2.671,1.074 -4.035,1.074 -3.804,0 -6.038,-2.613 -6.038,-6.793 0,-4.297 2.437,-6.938 6.241,-6.938 2.903,0 4.586,1.858 4.586,4.993 0,0.319 -0.029,0.987 -0.057,1.335 l -0.494,0.378 -8.099,0.029 z" />
    <path
       id="path76"
       d="m 195.5502,34.4439 c 0,1.568 0.261,1.974 1.276,1.974 0.582,0 1.307,-0.087 1.307,-0.087 l 0.059,0.116 -0.262,1.336 c 0,0 -2.293,-0.088 -3.57,-0.088 -1.017,0 -3.34,0.058 -3.34,0.058 l 0.262,-1.306 c 1.829,-0.029 2.206,-0.551 2.206,-3.106 v -4.383 c 0,0 -3.077,-0.03 -4.412,-0.03 -0.929,0 -4.819,0.319 -4.819,0.319 l -0.116,5.197 c 0,1.568 0.261,1.974 1.277,1.974 0.581,0 1.307,-0.087 1.307,-0.087 l 0.057,0.116 -0.261,1.336 c 0,-0.03 -1.451,-0.088 -2.468,-0.088 -1.683,0 -4.354,0.204 -4.412,0.349 l 0.174,-1.336 c 1.801,-0.348 2.265,-0.871 2.265,-2.496 l 0.028,-12.193 c 0,-1.248 -0.203,-1.568 -1.074,-1.568 -0.347,0 -0.987,0.059 -0.987,0.059 l -0.057,-0.117 0.203,-1.277 c 0,0 2.119,0.087 3.222,0.087 1.248,0 3.106,-0.261 3.106,-0.261 l -0.116,1.306 c -1.683,0.262 -1.829,0.581 -1.916,2.613 l -0.174,4.703 4.877,0.029 c 1.452,0 2.584,-0.087 4.296,-0.29 l 0.029,-5.284 c 0,-1.248 -0.203,-1.568 -1.074,-1.568 -0.348,0 -0.986,0.059 -0.986,0.059 l -0.059,-0.117 0.204,-1.277 c 0,0.029 1.915,0.087 2.844,0.087 1.394,0 3.484,-0.261 3.484,-0.261 l -0.116,1.306 c -1.452,0.203 -1.8,0.552 -1.858,1.655 -0.203,4.238 -0.406,10.131 -0.406,12.541" />
    <path
       id="path80"
       d="m 208.7249,28.8701 c 0.581,-0.058 0.726,-0.203 0.726,-0.784 0,-1.538 -0.871,-2.38 -2.409,-2.38 -1.801,0 -3.223,1.306 -3.572,3.425 z m -5.371,1.335 v 0.465 c 0,3.251 1.713,5.399 4.297,5.399 1.8,0 3.571,-0.9 3.571,-0.9 l 0.174,0.059 0.319,0.841 c 0,0 -2.7,1.975 -4.441,1.975 -3.658,0 -6.097,-2.584 -6.097,-6.416 0,-3.977 2.961,-7.403 6.416,-7.403 2.845,0 4.326,1.452 4.326,4.209 0,0.726 -0.175,1.423 -0.175,1.423 l -0.377,0.348 z" />
    <path
       id="path84"
       d="m 216.5901,34.2405 v -6.387 c 0,-1.277 -0.319,-1.77 -1.104,-1.77 -0.319,0 -0.609,0.087 -0.609,0.087 l -0.145,-0.203 0.087,-0.901 c 1.771,-0.319 3.919,-0.87 3.919,-0.87 l 0.203,0.174 c 0,0 -0.29,1.625 -0.261,2.99 l 0.116,0.087 c 1.191,-1.829 2.932,-3.106 4.093,-3.106 0.639,0 0.9,0.116 0.9,0.116 l 0.087,0.116 c 0,0 -0.406,2.381 -0.464,4.152 l -1.132,0.087 c 0,-1.597 -0.145,-1.974 -0.785,-1.974 -0.841,0 -1.886,0.754 -2.699,1.974 0,0 -0.232,5.283 -0.232,5.922 0,1.306 0.29,1.683 1.393,1.683 0.406,0 1.278,-0.058 1.278,-0.058 l 0.028,0.117 -0.26,1.277 c 0,0 -1.83,-0.058 -2.962,-0.058 -1.713,0 -3.048,0.116 -3.048,0.116 l 0.145,-1.161 c 1.161,-0.116 1.452,-0.581 1.452,-2.41" />
    <path
       id="path88"
       d="m 227.2704,18.7388 c 0,-0.958 0.755,-1.713 1.713,-1.713 0.812,0 1.422,0.609 1.422,1.481 0,0.958 -0.754,1.712 -1.712,1.712 -0.842,0 -1.423,-0.61 -1.423,-1.48 m -1.045,18.115 c 1.161,-0.32 1.626,-0.872 1.626,-1.887 v -7.374 c 0,-1.074 -0.349,-1.568 -1.075,-1.568 -0.319,0 -0.726,0.116 -0.726,0.116 l 0.117,-1.074 c 1.945,-0.29 4.181,-0.842 4.181,-0.842 l 0.144,0.349 c -0.348,0.813 -0.667,5.719 -0.667,10.277 0,1.131 0.29,1.625 1.015,1.625 0.349,0 1.016,-0.058 1.016,-0.058 l 0.059,0.116 -0.232,1.249 c 0,0 -1.51,-0.088 -2.584,-0.088 -1.219,0 -2.99,0.349 -2.99,0.349 z" />
    <path
       id="path92"
       d="m 235.6878,27.3894 c 0,-1.045 -0.377,-1.393 -1.654,-1.451 l -0.116,-0.175 0.144,-0.87 c 1.888,-0.929 3.601,-2.642 3.601,-2.642 l 0.58,0.232 c 0,0 -0.116,0.755 -0.233,2.178 l 4.269,-0.088 0.086,0.088 -0.261,1.538 -4.209,-0.087 c -0.117,1.829 -0.204,4.267 -0.204,7.258 0,1.974 0.61,2.699 2.265,2.699 0.958,0 1.974,-0.522 1.974,-0.522 l 0.29,0.755 c 0,0 -2.235,1.741 -2.931,1.741 -2.643,0 -3.601,-0.957 -3.601,-3.512 z" />
    <path
       id="path96"
       d="m 251.333,31.599 -3.92,1.19 c -0.551,0.174 -0.841,0.61 -0.841,1.219 0,1.104 0.841,1.946 2.002,1.946 0.726,0 1.83,-0.581 2.643,-1.394 z m 0.116,-2.38 c 0,-1.946 -0.929,-3.078 -2.555,-3.078 -1.887,0 -3.483,1.452 -3.483,1.452 l -0.146,-0.087 -0.348,-1.249 c 0,0 3.484,-2.032 4.732,-2.032 2.526,0 4.035,1.394 4.035,3.745 0,1.045 -0.522,4.964 -0.522,6.677 0,0.842 0.435,1.335 1.19,1.335 0.929,0 1.742,-0.725 1.742,-0.725 l 0.406,0.464 c 0,0 -1.073,1.829 -2.525,2.323 -1.568,0 -2.439,-0.784 -2.584,-2.352 l -0.117,-0.029 c -1.393,1.394 -2.612,2.265 -3.192,2.265 -2.149,0 -3.716,-1.51 -3.716,-3.6 0,-1.133 0.61,-2.062 1.539,-2.323 l 5.486,-1.509 z" />
    <path
       id="path100"
       d="m 268.5161,40.4241 c 0,-1.132 -1.017,-1.539 -5.662,-2.148 0,0 -1.799,1.335 -1.799,2.642 0,1.48 1.19,2.38 3.193,2.38 2.265,0 4.268,-1.364 4.268,-2.874 m -1.336,-10.945 c 0,-2.235 -1.364,-3.773 -3.338,-3.773 -1.771,0 -2.874,1.248 -2.874,3.193 0,2.235 1.335,3.745 3.338,3.745 1.771,0 2.874,-1.191 2.874,-3.165 m -5.255,4.21 c -0.783,0.435 -1.218,0.9 -1.218,1.277 0,0.9 1.103,1.336 3.483,1.423 4.5,0.232 6.184,1.074 6.184,3.106 0,2.671 -3.513,5.225 -7.2,5.225 -2.757,0 -4.383,-1.422 -4.383,-3.861 0.957,-1.277 2.874,-2.612 2.874,-2.612 v -0.175 c -1.8,-0.232 -3.165,-1.451 -3.165,-2.844 0.9,-0.929 2.439,-1.858 2.439,-1.858 v -0.116 c -1.364,-0.726 -2.148,-2.149 -2.148,-3.861 0,-2.758 2.526,-5.168 5.399,-5.168 1.104,0 2.09,0.32 2.845,0.32 1.481,-0.175 4.006,-0.872 4.006,-0.872 l 0.087,0.116 -0.319,1.626 c 0,0 -1.277,0.175 -2.496,0.262 l -0.117,0.145 c 0.755,0.842 1.161,1.858 1.161,2.932 0,2.903 -2.525,5.167 -5.747,5.167 -0.552,0 -1.075,-0.087 -1.685,-0.232" />
    <path
       id="path104"
       d="m 280.5022,28.8701 c 0.581,-0.058 0.726,-0.203 0.726,-0.784 0,-1.538 -0.871,-2.38 -2.409,-2.38 -1.801,0 -3.223,1.306 -3.572,3.425 z m -5.371,1.335 v 0.465 c 0,3.251 1.713,5.399 4.297,5.399 1.8,0 3.571,-0.9 3.571,-0.9 l 0.174,0.059 0.319,0.841 c 0,0 -2.7,1.975 -4.441,1.975 -3.658,0 -6.097,-2.584 -6.097,-6.416 0,-3.977 2.961,-7.403 6.416,-7.403 2.845,0 4.326,1.452 4.326,4.209 0,0.726 -0.175,1.423 -0.175,1.423 l -0.377,0.348 z" />
  </g>
  <g
     style="fill:url(#linearGradient943)"
     id="g946">
    <path
       d="m 18.355511,39.036726 1.337,1.343 4.826,-1.607 -1.61,4.823 1.34,1.34 2.95,-8.844 z"
       id="path941" />
    <path
       d="m 14.968511,40.109726 5.746,10.675 1.252,-1.252 -5.747,-10.674 z"
       id="path939" />
    <path
       d="m 12.416511,50.871726 1.608,-4.823 -1.34,-1.34 -2.949,8.846 8.842,-2.949 -1.338,-1.343 z"
       id="path937" />
    <path
       d="m 31.792511,42.149726 2.274,5.144 h 1.894 l -4.167,-8.935 -4.17,8.038 1.895,0.154 z"
       id="path935" />
    <path
       d="m 25.995511,49.252726 12,3.485 v -1.77 l -12,-3.484 z"
       id="path933" />
    <path
       d="m 31.792511,58.754726 -2.273,-4.461 h -1.895 l 4.169,8.252 4.167,-8.379 -1.896,0.018 z"
       id="path931" />
    <path
       d="m 45.068511,38.646726 -8.843,-2.95 2.945,8.844 1.342,-1.338 -1.607,-4.825 4.823,1.609 z"
       id="path929" />
    <path
       d="m 49.665511,40.928726 -10.674,5.748 1.251,1.25 10.675,-5.746 z"
       id="path927" />
    <path
       d="m 49.396511,45.656726 1.609,4.822 -4.822,-1.607 -1.34,1.34 8.843,2.948 -2.948,-8.842 z"
       id="path925" />
    <path
       d="m 45.995511,26.934726 -8.219,4.168 8.396,4.17 0.033,-1.896 -4.653,-2.274 4.443,-2.273 z"
       id="path923" />
    <path
       d="m 49.386511,37.293726 3.486,-12 h -1.771 l -3.484,12 z"
       id="path921" />
    <path
       d="m 54.995511,35.271726 7.967,-4.169 -8.522,-4.168 -0.095,1.896 4.873,2.272 -4.223,2.274 z"
       id="path919" />
    <path
       d="m 44.674511,23.724726 -1.339,-1.342 -4.824,1.608 1.608,-4.823 -1.34,-1.341 -2.948,8.844 z"
       id="path917" />
    <path
       d="m 48.061511,22.652726 -5.746,-10.675 -1.253,1.253 5.748,10.673 z"
       id="path915" />
    <path
       d="m 50.612511,11.889726 -1.608,4.823 1.341,1.339 2.947,-8.843 -8.842,2.949 1.339,1.341 z"
       id="path913" />
    <path
       d="m 33.510511,16.659726 -2.274,4.365 -2.274,-4.731 h -1.894 l 4.168,8.521 4.17,-8.245 z"
       id="path911" />
    <path
       d="m 37.995511,13.508726 -12,-3.485 v 1.77 l 12,3.485 z"
       id="path909" />
    <path
       d="m 31.236511,4.42073 2.274,4.873 h 1.895 l -4.169,-8.664 -4.169,8.175 1.896,0.083 z"
       id="path907" />
    <path
       d="m 23.857511,18.220726 -1.341,1.34 1.608,4.823 -4.823,-1.608 -1.34,1.34 8.844,2.949 z"
       id="path905" />
    <path
       d="m 13.363511,21.831726 10.674,-5.746 -1.251,-1.251 -10.675,5.746 z"
       id="path903" />
    <path
       d="m 13.631511,17.105726 -1.608,-4.823 4.824,1.608 1.339,-1.341 -8.844,-2.948 2.949,8.844 z"
       id="path901" />
    <path
       d="m 16.995511,35.827726 8.338,-4.169 -8.338,-4.169 v 1.896 l 4.547,2.273 -4.547,2.274 z"
       id="path899" />
    <path
       d="m 11.926511,37.293726 3.485,-11 h -1.769 l -3.485,11 z"
       id="path897" />
    <path
       d="m 0.346311,31.658726 8.3384,-4.169 v 1.896 l -4.547218,2.273 4.547218,2.274 v 1.895 z"
       id="path32-3" />
  </g>
</svg>
